<?xml version="1.0" encoding="UTF-8"?>
<svg id="Layer_1" data-name="Layer 1" xmlns="http://www.w3.org/2000/svg" xmlns:xlink="http://www.w3.org/1999/xlink" viewBox="0 0 1080 1440">
  <defs>
    <style>
      .cls-1 {
        font-family: BIGMACCA, BIGMACCA;
      }

      .cls-2 {
        fill: none;
        font-size: 94.75px;
        stroke: #fff;
        stroke-miterlimit: 10;
        stroke-width: .75px;
      }

      .cls-3 {
        font-family: Fortine-Regular, Fortine;
      }

      .cls-4 {
        fill: url(#linear-gradient);
      }
    </style>
    <linearGradient id="linear-gradient" x1="660.89" y1="509.67" x2="418.03" y2="930.31" gradientUnits="userSpaceOnUse">
      <stop offset="0" stop-color="#7692ff"/>
      <stop offset="1" stop-color="#1b2cc1"/>
    </linearGradient>
  </defs>
  <text class="cls-2" transform="translate(110.14 758.68)"><tspan class="cls-1" x="0" y="0">HACK BRAIN</tspan><tspan class="cls-3" x="698.76" y="0">’</tspan><tspan class="cls-1" x="716.48" y="0">26</tspan></text>
  <path class="cls-4" d="M113.66,754.58l-5.92-5.92v-53.29l5.92-5.92h17.77v23.69h29.61l-5.92-5.92v-17.76h17.77l5.92,5.92v53.29l-5.92,5.92h-17.77v-23.69h-29.61l5.92,5.92v17.77h-17.77Zm71.06,0v-17.77l47.37-47.37h29.61v65.14h-23.69v-5.92h-35.53l-5.92,5.92h-11.84Zm53.3-17.77v-17.76l5.92-5.92v-5.92l-29.61,29.61h23.69Zm29.61,17.77v-65.14l23.69,23.69v23.69h23.69l5.92-5.92h17.77v17.76l-5.92,5.92h-65.14Zm53.3-41.45l-5.92-5.92h-23.69l-17.77-17.76h59.22l5.92,5.92v17.76h-17.77Zm23.69,41.45v-59.22l5.92-5.92h17.77v59.22l-5.92,5.92h-17.77Zm47.37,0l-17.77-17.77v-23.69l23.69-23.69h17.77v11.84l-29.61,29.61v5.92l8.88-8.88,20.73,20.72v5.92h-23.69Zm65.14,0v-65.14h59.22l11.84,11.84v17.77l-2.96,2.96,2.96,2.96v23.69l-5.92,5.92h-53.3l17.77-17.77h23.69l-5.92-5.92h-29.61l5.92,5.92-17.77,17.77h-5.92Zm53.3-41.45l-5.92-5.92h-29.61l5.92,5.92h29.61Zm29.61,41.45l-5.92-5.92v-53.29l5.92-5.92h65.14l5.92,5.92v32.57l-8.88,8.88,8.88,8.88v8.88h-23.69l-17.77-17.77h-11.84v17.77h-17.77Zm47.37-35.53v-11.84h-35.53l5.92,5.92v5.92h29.61Zm29.61,35.53v-17.77l47.37-47.37h29.61v65.14h-23.69v-5.92h-35.53l-5.92,5.92h-11.84Zm53.3-17.77v-17.76l5.92-5.92v-5.92l-29.61,29.61h23.69Zm35.53,17.77l-5.92-5.92v-59.22h17.77l5.92,5.92v59.22h-17.77Zm29.61,0l-5.92-5.92v-59.22h17.77l35.53,35.53v-5.92l-5.92-5.92v-17.76l5.92-5.92h17.77v59.22l-5.92,5.92h-11.84l-35.53-35.53v5.92l5.92,5.92v23.69h-17.77Zm72.96-69.16h13.83v18.76l-4.93,4.93h-8.53v-4.93h7.58v-4.93h-7.96v-13.83Zm15.82,69.16v-5.92l35.53-35.53h11.84v-5.92h-23.69l-5.92,5.92h-17.77v-11.84l11.84-11.84h53.3l5.92,5.92v11.84l-29.61,29.61h29.61v17.77h-71.06Zm88.83,0l-11.84-11.84v-41.45l11.84-11.84h59.22v5.92l-11.84,11.84h-41.45l5.92,5.92h35.53l11.84,11.84v17.76l-11.84,11.84h-47.37Zm32.57-14.8v-8.88l-2.96-2.96h-14.8v11.84h17.77Z"/>
</svg>